PathFileType	4	(X/Y/Z)	/Users/visionmauri/Downloads/pro-gait-dataset/4_0_1_f_1_Sports2D/4_0_1_f_1_Sports2D_m_person00.trc
DataRate	CameraRate	NumFrames	NumMarkers	Units	OrigDataRate	OrigDataStartFrame	OrigNumFrames
30.0	30.0	7	22	m	30.0	408	654
Frame#	Time	Hip			RHip			RKnee			RAnkle			RBigToe			RSmallToe			RHeel			LHip			LKnee			LAnkle			LBigToe			LSmallToe			LHeel			Neck			Head			Nose			RShoulder			RElbow			RWrist			LShoulder			LElbow			LWrist			
		X1	Y1	Z1	X2	Y2	Z2	X3	Y3	Z3	X4	Y4	Z4	X5	Y5	Z5	X6	Y6	Z6	X7	Y7	Z7	X8	Y8	Z8	X9	Y9	Z9	X10	Y10	Z10	X11	Y11	Z11	X12	Y12	Z12	X13	Y13	Z13	X14	Y14	Z14	X15	Y15	Z15	X16	Y16	Z16	X17	Y17	Z17	X18	Y18	Z18	X19	Y19	Z19	X20	Y20	Z20	X21	Y21	Z21	X22	Y22	Z22
408	13.6208269525268	1.3850651880602405	0.46598104722636885	0.0301	1.3535328070356336	0.4429341291307225	0.0301	1.4146045831309788	0.33945978698491447	0.129	1.4919366558483709	0.2532538997761978	0.023	1.5224863418594416	0.1994283298580539	0.2179	1.5069720431072329	0.19474512896701385	0.1804	1.5110562767590034	0.24926206848274693	-0.0119	1.4150975243504504	0.485468014904165	0.0301	1.5053722606998379	0.38133901934525943	0.129	1.5909405548024613	0.26880619167475234	0.023	1.6297134752070819	0.2527300853547721	0.2179	1.6387920391105906	0.2660697919689699	0.1804	1.5978801545822774	0.24193730404605415	-0.0119	1.2882975337675318	0.6192243168846467	0.0008	1.2437858390147938	0.6985677521094672	0.0655	1.280520003032053	0.6435120650618437	0.1076	1.2470390878506183	0.576557331177701	-0.01275	1.2511917589979533	0.4838745945705592	0.0702	1.2837753791862945	0.4054602582710275	0.1076	1.3477834104409898	0.6347741614294767	-0.01275	1.4292477043521963	0.5829421569363453	0.0702	1.4928505246838029	0.5234051516119854	0.1076
409	13.654211332312403	1.3857484089026928	0.46845082073977307	0.0301	1.353591203515408	0.44588362719219865	0.0301	1.413990984220148	0.3412667482825339	0.129	1.494132941465432	0.2551910627751293	0.023	1.5260376262412918	0.201830117961883	0.2179	1.5094870344405267	0.19676221624699525	0.1804	1.5134300058407375	0.25048110298305576	-0.0119	1.4159565694045513	0.4881552158356426	0.0301	1.5065463034188646	0.38218781434406524	0.129	1.5913510990416795	0.26872434916085747	0.023	1.6300113147896635	0.2527848704594213	0.2179	1.6394274129492146	0.26671061213662967	0.1804	1.5976684358451776	0.2423231687036147	-0.0119	1.2887476138243072	0.6238309862015216	0.0008	1.2428972212005018	0.703297373293918	0.0655	1.2797848339791185	0.6484100244779719	0.1076	1.2484615237078827	0.5804560376029098	-0.01275	1.2537414784033625	0.4872371630152601	0.0702	1.2867879118229637	0.4077432457281299	0.1076	1.3490553174172955	0.639048646863706	-0.01275	1.4306315138620291	0.5869188694149293	0.0702	1.4918643750265368	0.5266297877376137	0.1076
410	13.687595712098009	1.3861331430703903	0.4706513932882479	0.0301	1.353559541231677	0.4484929071303367	0.0301	1.4154231994292836	0.34174042687365286	0.129	1.4971251465320943	0.2550532174510566	0.023	1.5313243207201097	0.20334950668182314	0.2179	1.5134723205245968	0.1977261411382692	0.1804	1.5164573758299655	0.24926543211575888	-0.0119	1.4163400812758848	0.49084450052788187	0.0301	1.5078142493066637	0.38217031433202714	0.129	1.5913497477359386	0.269022686207294	0.023	1.6299216339269234	0.2526115667483748	0.2179	1.6395176603456867	0.26674338532722575	0.1804	1.5975321313308646	0.24256969254341398	-0.0119	1.2886718290149715	0.6286154665152014	0.0008	1.2422505748121413	0.7078622363596008	0.0655	1.27867464959818	0.6534079640478517	0.1076	1.249629297380098	0.5837822957634352	-0.01275	1.2573397159880704	0.4902689897572379	0.0702	1.2897811281841989	0.410231002315443	0.1076	1.3497942391360174	0.6432390905281018	-0.01275	1.4314292110334164	0.5908856459368226	0.0702	1.4900535455949677	0.5300556758549034	0.1076
411	13.720980091883614	1.3864797145176992	0.47275101155504123	0.0301	1.354048518271141	0.4507588318159947	0.0301	1.4187341056887766	0.3407376245771517	0.129	1.5013009464302756	0.25272218107258454	0.023	1.5368055489021377	0.20308808371078066	0.2179	1.518798530202338	0.1968850027419226	0.1804	1.5209375209863798	0.24553208014216354	-0.0119	1.4165179420159988	0.49318052270527024	0.0301	1.5088194892275184	0.38189647095287377	0.129	1.591129781349267	0.26963209112716896	0.023	1.6295700959410404	0.25272929802136807	0.2179	1.6393639313340878	0.2664412692770555	0.1804	1.5976469754445028	0.2433811065001149	-0.0119	1.2888090711948172	0.6328507608623042	0.0008	1.2430048565700904	0.7112925968733462	0.0655	1.2788772969085382	0.65818530836254	0.1076	1.2502629596494559	0.586755207944823	-0.01275	1.2615027382064368	0.49334388630266207	0.0702	1.2932040720709537	0.41299515212009197	0.1076	1.3500696144126423	0.6472060721405005	-0.01275	1.4318955374093663	0.5947032914463132	0.0702	1.4877231656241205	0.5325316650739434	0.1076
412	13.754364471669218	1.3870343916876198	0.47478393175670225	0.0301	1.354750056331817	0.45268744115559184	0.0301	1.4223552936988917	0.339617551605186	0.129	1.5066054338984511	0.24881110951292074	0.023	1.542091396502411	0.20163596319219979	0.2179	1.5243335672531053	0.19467142257503023	0.1804	1.5271020531070725	0.2395132886440504	-0.0119	1.4171531483037996	0.49499696301977275	0.0301	1.5096380382648578	0.38161251164382026	0.129	1.5907939399800948	0.27022780360411236	0.023	1.6289276966034323	0.25295884758466086	0.2179	1.6392600620631075	0.26613518599066044	0.1804	1.597940285253005	0.2449064364808336	-0.0119	1.2892460793317275	0.6353427814934975	0.0008	1.2443667825583589	0.7136001359042922	0.0655	1.2801506096766424	0.6621019668133007	0.1076	1.2503782928730827	0.5888924842904683	-0.01275	1.2650885315422324	0.4957402761902689	0.0702	1.2966226873428446	0.41528473114066644	0.1076	1.350282182310889	0.6503387785039281	-0.01275	1.4326293700637613	0.59802430280407	0.0702	1.4853738719205685	0.5340383604375335	0.1076
413	13.787748851454824	1.3878914087528644	0.47637532765127133	0.0301	1.3553506749027044	0.4543416196049989	0.0301	1.4250320300640227	0.3397326722877934	0.129	1.512055863794495	0.24440506780850874	0.023	1.5469825887447612	0.20023497555492145	0.2179	1.5289668520847515	0.19237343885983768	0.1804	1.533790113714268	0.23260245329695875	-0.0119	1.418412030788123	0.4963558386578955	0.0301	1.510605150182274	0.3812731291736508	0.129	1.5902255359097077	0.2704487871592884	0.023	1.6278047075286202	0.25261067291918005	0.2179	1.638916162024175	0.2657546931471114	0.1804	1.598150765805131	0.24645539700069605	-0.0119	1.2897203047454537	0.636214005798097	0.0008	1.2450540085353727	0.7155048906583489	0.0655	1.2812192327117096	0.6649231042195292	0.1076	1.2502564475335702	0.5899703331690547	-0.01275	1.267512093259258	0.4971614796016819	0.0702	1.2996223510311313	0.4167823734930504	0.1076	1.3505390009771396	0.6523110227597668	-0.01275	1.4338378124058504	0.6005233751715032	0.0702	1.4833604061327705	0.5349306641578694	0.1076
414	13.82113323124043	1.3890247064556482	0.47727506616339027	0.0301	1.3561897496022668	0.455666996423472	0.0301	1.427316805364422	0.3410421375569917	0.129	1.5164115756281888	0.24067426660888727	0.023	1.5503425534502995	0.19941248337072065	0.2179	1.5320886597329981	0.1905440782897248	0.1804	1.5392673218868438	0.22701319349781818	-0.0119	1.4197027757767113	0.4974381118351173	0.0301	1.5116316854300538	0.38114955293269537	0.129	1.5893596471589284	0.2704150545810413	0.023	1.6265294461342228	0.25186011150733023	0.2179	1.6379089246045504	0.265183853636814	0.1804	1.5979949898731645	0.24722589388484234	-0.0119	1.2904543693154542	0.6366966198628261	0.0008	1.2451789745334905	0.7169647427424843	0.0655	1.2816980874752755	0.6664641135715453	0.1076	1.25039972203313	0.5907715565418358	-0.01275	1.2690910769455293	0.4983493714803284	0.0702	1.3023408052337355	0.41806458635253263	0.1076	1.3506917375901475	0.6535107471411402	-0.01275	1.4351540811567316	0.6022113102755011	0.0702	1.481470459511065	0.5356425915174672	0.1076
